<?xml version="1.0" encoding="UTF-8"?>
<svg width="73px" height="25px" viewBox="0 0 73 25" version="1.1" xmlns="http://www.w3.org/2000/svg" xmlns:xlink="http://www.w3.org/1999/xlink">
    <!-- Generator: Sketch 47.1 (45422) - http://www.bohemiancoding.com/sketch -->
    <title>assets / logo / abc energy</title>
    <desc>Created with Sketch.</desc>
    <defs></defs>
    <g id="Symbols" stroke="none" stroke-width="1" fill="none" fill-rule="evenodd">
        <g id="assets-/-logo-/-abc-energy">
            <g id="Page-1">
                <polygon id="Fill-1" fill="#536372" points="33.941135 17.8227618 28.9275275 17.8227618 28.9275275 20.554182 33.4127608 20.554182 33.4127608 21.3771401 28.9275275 21.3771401 28.9275275 24.1770419 34 24.1770419 34 25 28 25 28 17 33.941135 17"></polygon>
                <polygon id="Fill-2" fill="#536372" points="41.0896488 17 42 17 42 25 41.2551118 25 35.9105543 18.4400785 35.9105543 25 35 25 35 17 35.8750254 17 41.0896488 23.4113809"></polygon>
                <polygon id="Fill-3" fill="#536372" points="49.941135 17.8227618 44.9275275 17.8227618 44.9275275 20.554182 49.4127608 20.554182 49.4127608 21.3771401 44.9275275 21.3771401 44.9275275 24.1770419 50 24.1770419 50 25 44 25 44 17 49.941135 17"></polygon>
                <path d="M54.0213432,17.5967188 L51.5722419,17.5967188 L51.5722419,20.8273828 L54.0100525,20.8273828 C55.2004392,20.8273828 56.0507432,20.213125 56.0507432,19.1779688 C56.0507432,18.188125 55.3026392,17.5967188 54.0213432,17.5967188 L54.0213432,17.5967188 Z M56.1414579,24.7291406 L53.8399139,21.635 L51.5722419,21.635 L51.5722419,24.7291406 L50.6765805,24.7291406 L50.6765805,16.76625 L54.0892819,16.76625 C55.8354419,16.76625 56.9578899,17.7103906 56.9578899,19.1437891 C56.9578899,20.4746484 56.0507432,21.2482813 54.8037085,21.4758203 L57.2413245,24.7291406 L56.1414579,24.7291406 Z" id="Fill-4" fill="#536372"></path>
                <path d="M61.9926901,24.865625 C59.4984261,24.865625 57.9564715,23.0455078 57.9564715,20.7591797 C57.9564715,18.5636719 59.5550741,16.6298828 61.9360421,16.6298828 C63.2739861,16.6298828 64.1015141,17.0164062 64.8951701,17.6876953 L64.3170101,18.3703125 C63.7047835,17.8355469 63.0244235,17.4601563 61.9019755,17.4601563 C60.1445248,17.4601563 58.8861995,18.9503906 58.8861995,20.7363281 C58.8861995,22.6474609 60.0991675,24.0580078 62.0267568,24.0580078 C62.9337088,24.0580078 63.7727221,23.7054688 64.3170101,23.2617188 L64.3170101,21.2824219 L61.9019755,21.2824219 L61.9019755,20.4748047 L65.1786048,20.4748047 L65.1786048,23.6484375 C64.4417915,24.3082031 63.3306341,24.865625 61.9926901,24.865625" id="Fill-6" fill="#536372"></path>
                <polygon id="Fill-8" fill="#536372" points="69.6805051 24.7291406 68.7733584 24.7291406 68.7733584 21.5781641 65.4741477 16.76625 66.5625291 16.76625 69.2384171 20.7476953 71.9366917 16.76625 72.9799104 16.76625 69.6805051 21.5668359"></polygon>
                <path d="M35.2513107,3.81240234 L33.5022307,8.09619141 L37.0003907,8.09619141 L35.2513107,3.81240234 Z M39.238668,13.625293 L38.0348493,10.6625977 L32.4675773,10.6625977 L31.2639533,13.625293 L28.3110547,13.625293 L33.953468,0.321191406 L36.6242947,0.321191406 L42.2669027,13.625293 L39.238668,13.625293 Z" id="Fill-10" fill="#536372"></path>
                <path d="M51.6715608,9.60578125 C51.6715608,8.71867188 51.0133928,8.17160156 49.5273075,8.17160156 L46.1796248,8.17160156 L46.1796248,11.0776563 L49.6215261,11.0776563 C50.9004861,11.0776563 51.6715608,10.6247266 51.6715608,9.64347656 L51.6715608,9.60578125 Z M50.9380568,4.32199219 C50.9380568,3.45382812 50.2610061,2.96320312 49.0384995,2.96320312 L46.1796248,2.96320312 L46.1796248,5.75617187 L48.8502568,5.75617187 C50.1292168,5.75617187 50.9380568,5.3409375 50.9380568,4.3596875 L50.9380568,4.32199219 Z M49.6215261,13.6253125 L43.3583208,13.6253125 L43.3583208,0.415742187 L49.4710488,0.415742187 C52.1605635,0.415742187 53.8158141,1.75558594 53.8158141,3.83136719 L53.8158141,3.8690625 C53.8158141,5.35988281 53.0258568,6.19015625 52.0854221,6.71847656 C53.6088835,7.3034375 54.5493181,8.19035156 54.5493181,9.96417969 L54.5493181,10.0020703 C54.5493181,12.4175 52.5931128,13.6253125 49.6215261,13.6253125 L49.6215261,13.6253125 Z" id="Fill-12" fill="#536372"></path>
                <path d="M62.1668195,13.8516211 C58.2923688,13.8516211 55.4146115,10.8512305 55.4146115,7.05826172 L55.4146115,7.02037109 C55.4146115,3.26509766 58.2359155,0.189121094 62.2797261,0.189121094 C64.7623101,0.189121094 66.2482008,1.01958984 67.4709021,2.22720703 L65.6276035,4.35962891 C64.6120275,3.43501953 63.5775688,2.86880859 62.2608435,2.86880859 C60.0416435,2.86880859 58.4428461,4.71822266 58.4428461,6.98267578 L58.4428461,7.02037109 C58.4428461,9.28501953 60.0038781,11.1719336 62.2608435,11.1719336 C63.7656168,11.1719336 64.6871688,10.5680273 65.7216275,9.62447266 L67.5649261,11.492832 C66.2106301,12.9457617 64.7060515,13.8516211 62.1668195,13.8516211" id="Fill-14" fill="#536372"></path>
                <path d="M22.1892552,12.3632227 C23.6940285,10.6974023 24.4894365,8.73041016 24.4894365,6.67474609 C24.4894365,5.04642578 23.9727912,3.43216797 22.9951752,2.00677734 L22.9951752,2.00697266 C22.9833005,1.98958984 22.9741512,1.97630859 22.9669485,1.96615234 C21.4713245,0.943886719 19.7343139,0.358339844 18.1941112,0.358339844 C16.2445245,0.358339844 14.3749459,1.08099609 12.7673885,2.45189453 C14.4321779,4.06283203 15.6797965,6.30228516 16.2959165,8.79759766 C16.5964819,10.0143945 16.7487112,11.281582 16.7487112,12.5636133 C16.7487112,13.6755273 16.6340525,14.7761133 16.4076552,15.8427148 C18.7084205,15.1845117 20.7475539,13.9600977 22.1892552,12.3632227" id="Fill-16" fill="#0093C9"></path>
                <path d="M16.0786296,16.5484375 C13.8140723,17.1111328 11.3449203,17.1496094 9.05641893,16.6607422 C9.71205627,18.9683594 10.9322269,21.0142578 12.5242109,22.4615234 C14.1845229,23.9712891 16.1450109,24.7693359 18.1940723,24.7693359 C19.8179816,24.7693359 21.4267069,24.2507813 22.8468003,23.2695313 C22.9052003,23.2291016 22.9552296,23.1791016 22.9951363,23.1207031 C23.9727523,21.6955078 24.4895923,20.08125 24.4895923,18.4527344 C24.4895923,16.496875 23.7691309,14.6208984 22.4029603,13.0082031 C20.7977389,14.6783203 18.5654963,15.9300781 16.0786296,16.5484375" id="Fill-18" fill="#EE7623"></path>
                <path d="M11.8812269,22.6756836 C10.2162429,21.0647461 8.96881893,18.8250977 8.3528936,16.3301758 C8.05232827,15.1129883 7.8997096,13.8458008 7.8997096,12.5639648 C7.8997096,11.4524414 8.01436827,10.3516602 8.24096027,9.28486328 C5.94019493,9.94306641 3.9010616,11.1674805 2.45936027,12.7643555 C0.954392267,14.4301758 0.158984267,16.397168 0.158984267,18.452832 C0.158984267,20.0811523 0.675824267,21.6952148 1.65344027,23.1208008 C1.66531493,23.1379883 1.67446427,23.1512695 1.68147227,23.1614258 C3.17729093,24.1838867 4.9143016,24.7692383 6.45469893,24.7692383 C8.40389627,24.7692383 10.2736696,24.0467773 11.8812269,22.6756836" id="Fill-20" fill="#536372"></path>
                <path d="M2.24569413,12.1194727 C3.85091547,10.4493555 6.08315813,9.19759766 8.5700248,8.57923828 C10.8338035,8.01673828 13.3039288,7.97787109 15.5922355,8.46693359 C14.9364035,6.15912109 13.7162328,4.11322266 12.1244435,2.66615234 C10.4641315,1.15638672 8.5034488,0.358339844 6.45458213,0.358339844 C4.8306728,0.358339844 3.2217528,0.876894531 1.80185413,1.85794922 C1.74325947,1.89837891 1.6934248,1.94857422 1.65332347,2.00697266 C0.675902133,3.43236328 0.159062133,5.04662109 0.159062133,6.67494141 C0.159062133,8.63080078 0.8793288,10.5067773 2.24569413,12.1194727" id="Fill-22" fill="#80BC00"></path>
            </g>
        </g>
    </g>
</svg>